<?xml version="1.0" encoding="utf-8"?>

<!DOCTYPE svg PUBLIC "-//W3C//DTD SVG 1.1//EN" "http://www.w3.org/Graphics/SVG/1.1/DTD/svg11.dtd">
<svg version="1.1" id="Layer_1" xmlns="http://www.w3.org/2000/svg" xmlns:xlink="http://www.w3.org/1999/xlink" x="0px" y="0px"
	 width="564.825px" height="344.982px" viewBox="0 0 564.825 344.982" enable-background="new 0 0 564.825 344.982"
	 xml:space="preserve">
<g>
	<g>
		<path fill="#00539B" d="M336.732,43.722h-19.61l-31.391,102.58h15.987l6.745-22.089h37.286l6.772,22.089h27.801l-31.121-92.173
			C346.363,45.708,344.766,43.722,336.732,43.722z M312.944,109.109l14.027-46.812l14.209,46.812H312.944z"/>
		<path fill="#00539B" d="M193.737,83.927l5.038-7.433c10.593-15.724,3.305-32.793-17.65-32.793h-44.716v102.633h43.124
			C217.462,146.334,228.812,102.162,193.737,83.927z M167.855,132.628h-7.298V57.063h13.187c6.343,0,11.816,5.239,11.816,11.571
			c0,2.229-0.413,4.307-2.585,7.431l-8.546,12.812c8.945,2.144,14.916,8.953,14.916,21.682
			C189.346,126.028,180.087,132.628,167.855,132.628z"/>
		<path fill="#00539B" d="M106.906,83.927l4.994-7.433c10.623-15.724,3.348-32.793-17.652-32.793h-1.541H49.582v102.633h43.125
			C130.594,146.334,142.061,102.162,106.906,83.927z M81.011,132.628h-7.231V57.063h13.116c6.36,0,11.879,5.239,11.879,11.571
			c0,2.229-0.411,4.307-2.619,7.431l-8.592,12.812c8.967,2.144,14.939,8.953,14.939,21.682
			C102.503,126.028,93.256,132.628,81.011,132.628z"/>
		<path fill="#00539B" d="M281.508,43.702l-23.164,77.923l-19.475-64.562c-3.652-11.552-5.503-13.361-12.514-13.361h-18.104
			l33.557,102.601h24.658l31.27-102.601H281.508z"/>
	</g>
	<g>
		<polygon fill="#00539B" points="49.586,300.699 60.67,300.699 60.67,255.281 98.868,255.281 98.868,245.471 60.67,245.471 
			60.67,208.018 112.17,208.018 112.17,198.062 49.586,198.062 		"/>
		<g>
			<path fill="#00539B" d="M442.053,233.73c-2.835-3.785-6.481-6.609-10.769-8.541c-4.265-1.752-9.193-2.609-14.386-2.609
				c-4.982,0-9.603,0.922-13.835,2.773c-6.219,2.773-11.468,7.508-15.082,13.852c-3.587,6.285-5.57,14.094-5.57,23.047
				c0,5.797,0.764,11.195,2.348,16.012c2.35,7.166,6.478,12.949,12.256,16.928c5.707,3.951,13.076,6.09,21.673,6.09c0,0,0,0,0.021,0
				c6.896,0,12.481-1.123,17.039-2.742c7.311-2.75,11.049-6.109,12.85-8.082c-4.977-7.242-7.806-4.348-13.561-1.68
				c-3.366,1.676-9.835,3.072-15.643,3.072c-4.448,0-8.304-0.652-11.502-1.895c-2.443-0.902-4.562-2.16-6.37-3.764
				c-2.681-2.396-4.824-5.496-6.192-9.506c-1.277-3.541-1.985-7.754-2.117-12.668h55.601v-1.742c0-0.023,0-0.221,0-0.471
				c0-0.645,0.085-1.855,0.085-3.02c0-6.127-0.746-11.441-2.283-16.045C445.505,239.326,443.974,236.332,442.053,233.73z
				 M393.511,255.043c0.499-3.547,1.305-6.633,2.432-9.391c2.006-4.779,4.856-8.281,8.353-10.598
				c3.569-2.387,7.735-3.523,12.604-3.523c3.21,0,6.182,0.438,8.707,1.33c1.873,0.697,3.596,1.643,5.098,2.936
				c2.244,1.906,4.02,4.412,5.351,7.928c1.092,3.055,1.876,6.738,2.137,11.318H393.511z"/>
			<path fill="#00539B" d="M137.413,227.248c-2.796,1.703-5.303,3.781-7.541,5.984c0-1.852-0.033-3.283-0.205-4.463
				c-0.054-0.924-0.205-1.67-0.459-2.422c-0.187-0.48-0.413-0.988-0.807-1.469c-0.271-0.281-0.579-0.568-0.921-0.773
				c-0.514-0.326-1.062-0.529-1.647-0.596c-0.496-0.057-0.999-0.072-1.536-0.117h-5.081v77.314h10.656v-55.486
				c3.745-4.42,7.215-7.166,9.596-8.656c0.07-0.045,0.155-0.094,0.234-0.145c4.318-2.74,7.776-3.484,10.512-3.756
				c4.963-0.477,8.275-1.123,8.756-8.836c-1.977-0.586-4.259-0.943-6.68-0.971C146.65,222.846,141.674,224.598,137.413,227.248z"/>
			<path fill="#00539B" d="M489.848,255.703c-15.185-2.549-17.741-5.885-17.741-12.373c0-7.844,5.382-11.627,16.446-11.639
				c9.15-0.018,12.188,2.43,14.965,3.691c2.781,1.264,5.106,1.545,8.046-1.984c0.389-0.459,0.79-0.988,1.198-1.58
				c-0.325-0.365-0.723-0.768-1.198-1.215c-9.508-8.25-19.016-8.023-23.148-8.023c-16.375,0-26.535,8.166-26.535,21.311
				c0,15.514,13.122,19.605,24.558,21.439c15.558,2.482,18.294,6.102,18.294,12.785c0,9.465-5.991,14.049-18.294,14.049
				c-5.607,0-9.983-1.148-13.331-2.707v0.016c-5.045-2.387-7.9-4.838-11.938-0.484c-0.58,0.619-1.177,1.387-1.818,2.303
				c0.47,0.525,1.059,1.121,1.818,1.779c1.453,1.299,3.491,2.812,6.314,4.303c1.618,0.781,3.484,1.521,5.624,2.139
				c3.64,1.051,8.1,1.764,13.611,1.764c18.393,0,28.525-8.426,28.525-23.725C515.243,261.828,503.027,257.758,489.848,255.703z"/>
			<path fill="#00539B" d="M217.67,229.039c-2.359-2.32-5.419-4.012-9.017-5.027c-3.474-0.996-7.467-1.432-11.784-1.432
				c-14.706,0.078-22.977,4.338-28.352,7.404c3.974,8.398,8.184,6.348,13.619,4.004c4.176-1.789,8.978-2.535,14.055-2.535
				c2.325,0,4.889,0.547,7.38,1.057c1.463,0.396,2.786,0.945,3.874,1.58c1.771,1.105,3.032,2.475,4.001,4.242
				c0.942,1.795,1.45,4.154,1.45,7.176v10.984c-5.558-1.238-11.163-1.795-17.533-1.795c-4.466,0-8.554,0.43-12.36,1.336
				c-2.773,0.684-5.276,1.619-7.695,2.85c-3.431,1.885-6.248,4.443-8.237,7.631c-1.977,3.27-2.989,7.104-2.989,11.584
				c0,3.637,0.646,7.039,1.85,9.92c1.907,4.297,5.179,7.705,9.233,9.887c4.126,2.223,8.962,3.338,14.407,3.338c0,0,0,0,0.028,0
				c6.276,0,11.261-1.166,15.525-3.16c2.906-1.422,5.44-3.154,7.771-5.227c0.057,1,0.121,1.822,0.25,2.598
				c0.105,0.832,0.314,1.582,0.7,2.27c0.254,0.502,0.581,1.006,1.019,1.402c0.686,0.543,1.453,0.906,2.238,1.1
				c0.812,0.217,1.723,0.271,2.688,0.271h3.729v-55.436c0-3.988-0.655-7.412-1.921-10.369
				C220.653,232.48,219.344,230.598,217.67,229.039z M212.896,281.324c-2.708,3.117-5.558,5.785-8.895,7.607
				c-3.529,1.957-7.783,3.129-13.468,3.129c-2.299,0-4.448-0.266-6.419-0.824c-1.426-0.393-2.676-0.988-3.832-1.736
				c-1.646-1.07-2.966-2.529-3.948-4.469c-0.981-1.984-1.529-4.438-1.529-7.492c0-2.641,0.529-4.689,1.529-6.391
				c0.774-1.309,1.697-2.408,2.906-3.463c1.769-1.459,4.12-2.504,6.983-3.256c2.758-0.723,5.973-1.07,9.567-1.07
				c6.326,0,11.923,0.816,17.104,1.961V281.324z"/>
			<path fill="#00539B" d="M298.221,228.398c-1.988-2.293-4.484-3.734-7.203-4.619c-2.733-0.867-5.674-1.199-8.713-1.199
				c-6.85,0-13.062,1.516-18.657,3.896c-4.436,1.912-8.369,4.242-11.901,6.855v-0.83c0-1.668-0.037-2.955-0.163-4.088
				c-0.091-0.795-0.3-1.551-0.532-2.264c-0.182-0.477-0.474-0.979-0.845-1.377c-0.254-0.297-0.562-0.541-0.906-0.738
				c-0.552-0.307-1.077-0.465-1.593-0.533c-0.51-0.064-1.015-0.064-1.552-0.115h-5.054v77.109h10.645v-56.898
				c3.9-2.98,8.278-5.762,12.797-7.9c4.844-2.242,9.883-3.646,15.009-3.646c1.965,0,3.781,0.154,5.399,0.529
				c1.139,0.305,2.189,0.758,3.076,1.271c1.321,0.895,2.364,2.033,3.162,3.75c0.795,1.73,1.241,4.033,1.241,7.182v55.713h10.708
				v-56.49c0-4.039-0.568-7.402-1.67-10.275C300.607,231.686,299.554,229.861,298.221,228.398z"/>
			<path fill="#00539B" d="M364.362,289.053c-3.153,1.543-7.323,2.764-12.784,2.764c-4.175,0-7.728-0.67-10.909-1.973
				c-2.344-0.988-4.394-2.299-6.233-3.971c-2.729-2.488-4.834-5.713-6.342-9.775c-1.447-4.027-2.266-8.871-2.266-14.375
				c0-4.867,0.685-9.131,1.955-12.85c1.818-5.537,4.896-9.768,8.925-12.646c4.009-2.889,9.01-4.42,14.87-4.43
				c4.984,0,8.781,0.828,11.673,2.055c5.433,2.34,9.228,5.104,13.213-3.299c-10.848-8.805-21.719-7.828-24.769-7.973
				c-5.32,0-10.32,0.9-14.746,2.609c-6.694,2.705-12.226,7.312-16.026,13.508c-3.801,6.227-5.878,14.031-5.862,23.025
				c0,5.875,0.807,11.344,2.415,16.166c2.436,7.281,6.645,13.07,12.408,17.109c5.773,3.957,12.943,6.127,21.318,6.127
				c0,0,0,0,0.029,0c6.585,0,12.02-1.314,16.309-3.098c0.553-0.24,1.095-0.465,1.608-0.709c3.464-1.652,6.712-4.146,8.64-5.994
				C373.225,283.23,369.623,286.33,364.362,289.053z"/>
			<path fill="#00539B" d="M410.976,210.537c0.392,0.662,0.829,1.326,1.364,1.939c0.039,0.037,0.065,0.088,0.098,0.131
				c0.575,0.631,1.262,1.301,2.063,2.051l23.362-21.838c-5.543-4.432-8.834-4.449-12.054-2.477
				c-0.657,0.402-1.327,0.891-1.988,1.438c-0.331,0.258-0.724,0.635-1.136,1.055c-0.976,1.006-6.527,7.32-9.417,10.613l-1.001,1.127
				c-0.033,0.049-0.078,0.098-0.114,0.148c-0.307,0.416-0.621,0.785-0.907,1.188c-0.318,0.465-0.564,1.012-0.719,1.668
				c-0.082,0.428-0.11,0.857-0.054,1.275C410.538,209.449,410.722,210.051,410.976,210.537z"/>
		</g>
	</g>
</g>
</svg>
